<?xml version="1.0" encoding="utf-8"?>
<!-- Generator: Adobe Illustrator 16.0.0, SVG Export Plug-In . SVG Version: 6.00 Build 0)  -->
<!DOCTYPE svg PUBLIC "-//W3C//DTD SVG 1.1//EN" "http://www.w3.org/Graphics/SVG/1.1/DTD/svg11.dtd">
<svg version="1.1" id="Layer_1" xmlns="http://www.w3.org/2000/svg" xmlns:xlink="http://www.w3.org/1999/xlink" x="0px" y="0px"
	 width="849.316px" height="151.814px" viewBox="0 0 849.316 151.814" enable-background="new 0 0 849.316 151.814"
	 xml:space="preserve">
<path fill="#FFFFFF" d="M187.584,146.953c0-43.305,0-86.608,0-129.913c-0.338-8.461-0.578-21.332-19.493-13.639
	c-31.559,11.547-63.3,22.667-94.574,34.957c-23.697,9.316-49.652,19.524-63.012,69.392C7.005,120.816,3.502,133.885,0,146.953
	c10.028,0,20.057,0,30.083,0c2.831-10.568,5.664-21.135,8.496-31.703c9.566-35.711,28.355-43.098,45.508-49.841
	c24.616-9.672,49.56-18.51,74.401-27.599c0,36.381,0,72.762,0,109.143C168.188,146.953,177.886,146.953,187.584,146.953
	L187.584,146.953z M308.217,108.633c-0.964-2.779-2.315-5.365-4.052-7.719c-1.737-2.393-3.744-4.438-5.981-6.174
	c-2.276-1.736-4.786-3.088-7.526-4.09c-2.74-0.967-5.673-1.469-8.76-1.469h-29.868v60.049h-27.901V0h66.916
	c4.014,0,7.795,0.077,11.423,0.27c3.628,0.194,7.101,0.619,10.419,1.312c3.319,0.655,6.484,1.699,9.494,3.048
	c3.01,1.352,5.904,3.203,8.683,5.519c4.9,4.167,8.567,9.223,11.037,15.166c2.43,5.943,3.665,12.079,3.665,18.33
	c0,9.107-2.199,16.941-6.599,23.464c-4.437,6.521-10.458,11.498-18.138,14.973c3.204,2.393,6.137,5.479,8.683,9.223
	c2.548,3.705,4.824,8.297,6.792,13.699l16.054,44.227h-30.062L308.217,108.633L308.217,108.633z M252.029,63.521h37.085
	c4.978,0,9.261-0.309,12.773-1.004c3.55-0.694,6.445-1.813,8.722-3.396c2.276-1.583,3.936-3.628,4.978-6.174
	c1.043-2.509,1.582-5.635,1.582-9.301c0-6.637-2.044-11.499-6.174-14.586c-4.09-3.087-10.458-4.631-19.024-4.631h-39.941V63.521
	L252.029,63.521z M412.401,38.667c7.834,0,14.896,1.273,21.187,3.82c6.29,2.586,11.654,6.252,16.093,11.076
	c4.478,4.824,7.872,10.768,10.304,17.752c2.393,7.022,3.627,14.974,3.627,23.888c0,8.875-1.234,16.824-3.704,23.848
	c-2.432,6.986-5.866,12.928-10.343,17.791c-4.438,4.861-9.802,8.568-16.169,11.152c-6.329,2.547-13.313,3.82-20.994,3.82
	c-7.64,0-14.588-1.234-20.878-3.781c-6.29-2.51-11.692-6.174-16.168-10.959c-4.477-4.787-7.95-10.691-10.459-17.754
	c-2.469-7.061-3.743-15.088-3.743-24.117c0-8.914,1.235-16.865,3.704-23.888c2.432-6.985,5.867-12.928,10.343-17.752
	c4.438-4.824,9.841-8.489,16.17-11.076C397.699,39.941,404.684,38.667,412.401,38.667L412.401,38.667z M412.401,129.201
	c3.435,0,6.638-0.695,9.61-2.123c2.932-1.428,5.44-3.588,7.486-6.443c2.083-2.857,3.704-6.408,4.861-10.652
	c1.196-4.205,1.776-9.145,1.776-14.779c0-5.674-0.58-10.613-1.776-14.818c-1.157-4.246-2.778-7.757-4.861-10.574
	c-2.046-2.817-4.555-4.979-7.486-6.406c-2.973-1.428-6.176-2.124-9.61-2.124c-3.55,0-6.792,0.696-9.725,2.124
	c-2.971,1.427-5.479,3.589-7.525,6.406c-2.084,2.817-3.704,6.328-4.862,10.574c-1.196,4.205-1.776,9.145-1.776,14.818
	c0,5.635,0.58,10.574,1.776,14.779c1.158,4.244,2.777,7.795,4.862,10.652c2.045,2.855,4.554,5.016,7.525,6.443
	C405.609,128.506,408.851,129.201,412.401,129.201L412.401,129.201z M503.736,149.23h-26.436V0h26.436V149.23L503.736,149.23z
	 M550.113,149.23h-26.436V0h26.436V149.23L550.113,149.23z M596.605,46.695c7.101-5.365,15.09-8.027,23.965-8.027
	c7.256,0,13.7,1.312,19.335,4.013c5.672,2.663,10.418,6.446,14.316,11.307c3.858,4.863,6.792,10.729,8.799,17.559
	c2.007,6.87,3.01,14.471,3.01,22.846c0,8.684-1.196,16.555-3.551,23.617c-2.392,7.102-5.672,13.158-9.841,18.176
	c-4.206,4.979-9.107,8.877-14.779,11.578c-5.635,2.701-11.771,4.051-18.407,4.051c-4.517,0-8.606-0.461-12.272-1.389
	c-3.665-0.965-7.177-2.432-10.574-4.477v3.281h-26.55V0h26.55V46.695L596.605,46.695z M596.605,119.592
	c3.319,3.164,6.793,5.557,10.42,7.178c3.588,1.621,7.41,2.432,11.385,2.432c6.213,0,11.113-2.932,14.779-8.799
	c3.629-5.865,5.48-14.549,5.48-26.01c0-10.998-1.737-19.257-5.21-24.814c-3.474-5.558-8.259-8.297-14.355-8.297
	c-7.757,0-15.282,4.747-22.499,14.241V119.592L596.605,119.592z M742.354,101.186h-7.834c-22.614,0-33.882,5.479-33.882,16.516
	c0,3.588,1.466,6.443,4.397,8.451c2.934,2.045,6.87,3.049,11.848,3.049s9.764-0.965,14.355-2.971
	c4.632-2.008,8.297-4.941,11.115-8.762V101.186L742.354,101.186z M676.439,73.128c3.165-22.96,18.987-34.461,47.467-34.461
	c6.946,0,13.161,0.618,18.717,1.852c5.518,1.235,10.265,3.436,14.124,6.6c3.897,3.202,6.87,7.487,8.954,12.889
	c2.044,5.441,3.087,12.349,3.087,20.722v68.5h-26.435v-5.635c-4.4,2.625-9.108,4.668-14.202,6.098
	c-5.094,1.428-10.535,2.121-16.323,2.121c-5.441,0-10.496-0.811-15.166-2.43c-4.67-1.621-8.722-3.898-12.156-6.832
	c-3.434-2.932-6.137-6.445-8.066-10.496c-1.968-4.092-2.971-8.566-2.971-13.469c0-26.164,21.534-39.246,64.562-39.246h4.322
	c-0.078-2.934-0.348-5.519-0.733-7.718c-0.425-2.238-1.312-4.128-2.663-5.672c-1.351-1.543-3.319-2.703-5.904-3.512
	c-2.548-0.773-5.981-1.159-10.265-1.159c-5.364,0-9.608,0.811-12.734,2.47s-5.249,4.786-6.368,9.377H676.439L676.439,73.128z
	 M849.316,67.726c-2.354-1.002-4.553-1.737-6.637-2.199c-2.045-0.502-4.9-0.733-8.528-0.733c-3.59,0-6.907,0.886-9.957,2.739
	c-3.01,1.852-5.98,4.708-8.914,8.529v73.168h-26.55V41.253h26.55v6.213c6.56-5.866,13.738-8.799,21.61-8.799
	c1.428,0,3.126,0.116,5.133,0.347c2.007,0.194,4.438,0.618,7.293,1.235V67.726L849.316,67.726z"/>
<path fill-rule="evenodd" clip-rule="evenodd" fill="#FFFFFF" d="M72.69,79.459c-3.067,1.705-6,3.682-8.751,6.131
	c-9.268,8.248-14.292,20.023-17.441,31.781l-7.928,29.58H72.69V79.459L72.69,79.459z"/>
<path fill-rule="evenodd" clip-rule="evenodd" fill="#FFFFFF" d="M110.686,64.02c-7.89,2.943-15.761,5.938-23.601,9.018
	c-2.096,0.825-4.166,1.642-6.197,2.5v71.414h29.798V64.02L110.686,64.02z"/>
<path fill-rule="evenodd" clip-rule="evenodd" fill="#FFFFFF" d="M150.291,146.951c0-32.475,0-64.951,0-97.427
	c-10.473,3.807-20.953,7.598-31.408,11.455v85.972H150.291L150.291,146.951z"/>
</svg>
